<?xml version="1.0" standalone="no"?><!DOCTYPE svg PUBLIC "-//W3C//DTD SVG 1.1//EN" "http://www.w3.org/Graphics/SVG/1.1/DTD/svg11.dtd"><svg t="1509002176967" class="icon" style="" viewBox="0 0 1228 1024" version="1.1" xmlns="http://www.w3.org/2000/svg" p-id="854" xmlns:xlink="http://www.w3.org/1999/xlink" width="239.84375" height="200"><defs><style type="text/css"></style></defs><path d="M1217.6 929.59999958c0-47.72160028-27.07199972-86.40000042-57.60000028-86.39999944H65.60000028c-30.52799958 0-57.60000028 38.67840014-57.60000028 86.39999944s27.07199972 86.40000042 57.60000028 86.40000042h1094.39999944c30.52799958 0 57.60000028-38.67840014 57.60000028-86.40000042m0-431.99999916c0-47.72160028-27.07199972-86.40000042-57.60000028-86.40000042H65.60000028c-30.52799958 0-57.60000028 38.67840014-57.60000028 86.40000042s27.07199972 86.40000042 57.60000028 86.39999944h1094.39999944c30.52799958 0 57.60000028-38.67840014 57.60000028-86.39999944M65.60000028 180.79999986C35.07199972 180.79999986 8 142.12159972 8 94.40000042s27.07199972-86.40000042 57.60000028-86.40000042h1094.39999944c30.52799958 0 57.60000028 38.67840014 57.60000028 86.40000042s-27.07199972 86.40000042-57.60000028 86.39999944H65.60000028z" p-id="855"></path></svg>