<svg style="display:none;">
        <symbol id="hfq-logo" viewBox="0 0 121 51">
            <title>会分期logo</title>
            <g stroke="none" stroke-width="1" fill-rule="evenodd">
                <path d="M91.6068,33.9823 L93.0178,38.2143 C93.2498,38.9123 94.0358,39.4783 94.7708,39.4783 L97.6028,39.4783 L95.7708,33.9823 L91.6068,33.9823 Z"
                    id="Fill-1"></path>
                <path d="M81.6138,39.4784 L84.4458,39.4784 C85.1808,39.4784 85.9658,38.9124 86.1988,38.2144 L87.6098,33.9824 L83.4458,33.9824 L81.6138,39.4784 Z"
                    id="Fill-3"></path>
                <path d="M111.2605,9 L102.9315,9 C102.1955,9 101.4185,9.568 101.1955,10.271 L100.4335,12.664 L108.2615,12.664 C108.6295,12.664 108.9275,12.961 108.9275,13.33 L108.9275,18.493 L102.9315,18.493 C102.1955,18.493 101.4185,19.062 101.1955,19.765 L100.4335,22.157 L108.2615,22.157 C108.6295,22.157 108.9275,22.454 108.9275,22.823 L108.9275,27.987 L102.9315,27.987 C102.1955,27.987 101.4185,28.555 101.1955,29.258 L100.4335,31.651 L108.9275,31.651 L108.9275,39.478 L111.2585,39.478 C111.9945,39.478 112.5915,38.883 112.5915,38.147 L112.5915,10.332 C112.5915,9.596 111.9975,9 111.2605,9"
                    id="Fill-5"></path>
                <path d="M92.9391,16.1616 L86.4441,16.1616 L86.4441,13.3306 L92.2741,13.3306 C92.6411,13.3306 92.9391,13.6276 92.9391,13.9976 L92.9391,16.1616 Z M92.9391,22.8236 L86.4441,22.8236 L86.4441,19.8256 L92.2741,19.8256 C92.6411,19.8256 92.9391,20.1236 92.9391,20.4906 L92.9391,22.8236 Z M92.9391,29.3186 L86.4441,29.3186 L86.4441,26.4876 L92.2741,26.4876 C92.6411,26.4876 92.9391,26.7866 92.9391,27.1536 L92.9391,29.3186 Z M97.2691,13.3306 C98.0051,13.3306 98.7591,12.7536 98.9531,12.0436 L99.6011,9.6666 L96.6031,9.6666 L96.6031,8.9996 L92.9391,8.9996 L92.9391,9.6666 L86.4441,9.6666 L86.4441,8.9996 L82.7801,8.9996 L82.7801,9.6666 L80.7811,9.6666 L80.7811,13.3306 L82.1141,13.3306 C82.4821,13.3306 82.7801,13.6266 82.7801,13.9966 L82.7801,29.3186 L80.7811,29.3186 L80.7811,32.9826 L97.2701,32.9826 C98.0041,32.9826 98.7591,32.4066 98.9531,31.6966 L99.6011,29.3186 L96.6031,29.3186 L96.6031,13.3306 L97.2691,13.3306 Z"
                    id="Fill-8"></path>
                <path d="M41.477,18.9929 L38.308,18.9929 C37.573,18.9929 36.709,18.4599 36.38,17.8029 L34.106,13.2599 C33.942,12.9319 33.51,12.6639 33.141,12.6639 L19.638,12.6639 L20.516,10.2509 C20.767,9.5609 21.568,8.9999 22.305,8.9999 L35.476,8.9999 C36.212,8.9999 37.062,9.5409 37.373,10.2079 L41.477,18.9929 Z M38.976,19.8259 L38.438,22.0239 C38.275,22.7409 37.545,23.3229 36.81,23.3229 L9.969,23.3229 C9.232,23.3229 8.829,22.7599 9.07,22.0629 L13.84,10.2509 C14.095,9.5599 14.9,8.9999 15.637,8.9999 L18.637,8.9999 L14.635,19.2009 C14.506,19.5459 14.699,19.8259 15.068,19.8259 L38.976,19.8259 Z M19.088,29.1519 L38.978,29.1519 C39.715,29.1519 40.448,28.5719 40.619,27.8549 L41.144,25.6549 L11.634,25.6549 C10.897,25.6549 10.113,26.2199 9.88,26.9179 L9.135,29.1519 L14.756,29.1519 L11.269,38.0709 C11.001,38.7559 11.379,39.3119 12.117,39.3119 L38.292,39.3119 C39.028,39.3119 39.402,38.7579 39.127,38.0749 L37.012,32.8169 L32.678,32.8169 L33.562,35.1899 C33.691,35.5349 33.498,35.8139 33.128,35.8139 L17.113,35.8139 C16.745,35.8139 16.556,35.5379 16.692,35.1949 L19.088,29.1519 Z"
                    id="Fill-11"></path>
                <path d="M56.3549,26.3211 L51.1829,39.4781 L47.1689,39.4781 L52.3399,26.3211 L46.3059,26.3211 L47.2619,23.7231 C47.5299,23.0421 48.3209,22.4901 49.0279,22.4901 L72.4689,22.4901 C73.1759,22.4901 73.7489,23.0861 73.7489,23.8231 L73.7489,38.1471 C73.7489,38.8821 73.1519,39.4781 72.4179,39.4781 L68.9969,39.4781 C68.2619,39.4781 67.4689,38.9141 67.2259,38.2201 L66.3849,35.8141 L69.2289,35.8141 C69.5969,35.8141 69.8949,35.5161 69.8949,35.1471 L69.8949,26.9881 C69.8949,26.6201 69.6079,26.3211 69.2549,26.3211 L56.3549,26.3211 Z M77.4509,21.8241 L74.4489,21.8241 C73.7139,21.8241 72.8609,21.2851 72.5459,20.6201 L69.0659,13.2651 C68.9089,12.9331 68.4829,12.6641 68.1149,12.6641 L55.7959,12.6641 L56.6369,10.2581 C56.8789,9.5641 57.6719,9.0001 58.4069,9.0001 L70.3439,9.0001 C71.0799,9.0001 71.9199,9.5441 72.2229,10.2151 L77.4509,21.8241 Z"
                    id="Fill-14"></path>
                <path d="M49.6292,10.2319 C49.9102,9.5519 50.7352,8.9999 51.4692,8.9999 L54.4762,8.9999 L49.9732,20.2539 C49.7002,20.9369 48.8802,21.4909 48.1452,21.4909 L44.9742,21.4909 L49.6292,10.2319 Z"
                    fill="currentColor" id="Fill-17"></path>
            </g>
        </symbol>
    </svg>
